<svg id="Layer_1" data-name="Layer 1" xmlns="http://www.w3.org/2000/svg" viewBox="0 0 900 635"><defs><style>.cls-1,.cls-2{fill:#ddc4a7;}.cls-1{stroke:#1a1a1a;stroke-miterlimit:10;}.cls-3{fill:#fff;}</style></defs><title>main1img</title><rect class="cls-1" width="900" height="635"/><path class="cls-2" d="M310.24,324.19c.66-22.92-.34-41.92,6.7-69.21,90.56,4.46,169.11-13.08,259.66-8.61,2.19.1,4.62.32,6.09,1.95,1.14,1.26,1.4,3.06,1.6,4.75,4,32.3,7.61,93.2,4,125.9-.37,3.3.64,7.11-1.74,9.41-1.59,1.54-3.92,2-6.1,2.29-80.49,12.34-164.34,6.78-245.58,1.25"/><path class="cls-3" d="M313.24,324.19c.49-17.23.22-34.49,3-51.55.93-5.67,2.14-11.29,3.57-16.86l-2.9,2.2c23.13,1.13,46.29.85,69.41-.24,22.46-1.07,44.88-2.87,67.3-4.6s44.84-3.35,67.31-4.08c11.52-.38,23-.53,34.57-.36q8.91.13,17.8.51c2,.09,4.74-.22,6.58.72,1.45.75,1.38,3.06,1.55,4.47,2,16.27,3.2,32.63,4.09,49,1,18,1.54,36.11,1.05,54.16-.11,3.9-.27,7.79-.52,11.68-.22,3.51-.7,7-.89,10.54-.11,1.88.37,4.28-.37,5.9s-3.26,1.8-4.8,2c-5.67.92-11.37,1.66-17.06,2.36-23.24,2.83-46.63,4.28-70,4.8s-47.1.1-70.63-.84-46.94-2.39-70.39-3.95l-17.07-1.16a3,3,0,0,0,0,6c23.84,1.63,47.69,3.24,71.56,4.4s48,1.91,72,1.75,47.78-1.18,71.55-3.56q8.91-.9,17.79-2c3-.39,6-.8,9-1.24a46.17,46.17,0,0,0,7.76-1.36,9,9,0,0,0,6-5.24c.84-2.18.68-4.55.7-6.84,0-3.67.65-7.39.89-11.06,1.14-17.49.83-35.09.14-52.59-.69-17.77-1.87-35.55-3.68-53.24q-.54-5.28-1.18-10.54c-.33-2.71-.73-5.46-2.8-7.45s-4.71-2.34-7.31-2.51c-11.8-.76-23.7-.83-35.52-.75-23.09.14-46.15,1.43-69.18,3.08-22.72,1.63-45.41,3.59-68.14,5-23.25,1.45-46.55,2.31-69.85,1.85q-8.8-.18-17.59-.61a3,3,0,0,0-2.89,2.21,196,196,0,0,0-5.22,29.36c-.86,8.58-1.13,17.19-1.29,25.8-.09,4.95-.16,9.9-.3,14.84-.11,3.86,5.89,3.86,6,0Z"/><path class="cls-2" d="M339.39,370.19q38.12-68.46,82.32-133.28a125.15,125.15,0,0,0,31.63,60.34L481,265.46c1.25-1.43,2.9-3,4.74-2.57,1.47.35,2.33,1.84,3,3.19q20.43,40.31,40.85,80.6a6.62,6.62,0,0,1,1.06,4.18c-.57,2.86-4.24,3.62-7.16,3.74a400.87,400.87,0,0,1-77.08-4.39"/><path class="cls-3" d="M342,371.7q14.85-26.65,30.63-52.8T405.22,267q9.39-14.38,19.08-28.59l-5.49-.71a127.83,127.83,0,0,0,22.32,49.61,130.56,130.56,0,0,0,10.09,12.05,3,3,0,0,0,4.25,0L470.57,282l7.63-8.79,3.58-4.11c.91-1.06,2-2.78,3.32-3.3-.25.1-.43-.28,0,.11-.26-.24.29.41.12.16a10.74,10.74,0,0,1,.56.92c.92,1.66,1.73,3.38,2.59,5.08l5.19,10.24,10.38,20.48,20.76,41c.82,1.62,1.67,3.22,2.46,4.85a5.37,5.37,0,0,1,.56,1.47c0,.14,0,.48,0,.14-.19.29-.19.33,0,.1a3.11,3.11,0,0,1-.4.41c.42-.36-.34.18-.37.2-.79.42.43-.11-.44.18a12.44,12.44,0,0,1-1.6.39,14.25,14.25,0,0,1-1.47.12c-1,0-2,.07-3,.11q-11.32.36-22.65.09a396.36,396.36,0,0,1-50.68-4.48,3.09,3.09,0,0,0-3.69,2.1c-.39,1.42.48,3.44,2.09,3.69a409.81,409.81,0,0,0,48.83,4.59q12.06.39,24.13.07c3.33-.1,7,.12,10.18-1.12,3.48-1.36,5.66-4.48,4.74-8.3a26,26,0,0,0-2.44-5.41l-2.93-5.79L522.44,326,511.38,304.2l-11.06-21.82-5.64-11.13-2.48-4.9a17.43,17.43,0,0,0-2.94-4.74,6,6,0,0,0-6.14-1.46c-2.07.72-3.54,2.33-4.94,3.93l-8.77,10.1-18.19,20.95h4.25a122.2,122.2,0,0,1-26.93-44.59,126.65,126.65,0,0,1-3.94-14.43c-.57-2.71-4.13-2.69-5.48-.72q-17.19,25.23-33.5,51t-31.8,52.39q-8.65,14.83-17,29.86c-1.88,3.37,3.3,6.4,5.18,3Z"/></svg>