<svg id="Layer_1" data-name="Layer 1" xmlns="http://www.w3.org/2000/svg" viewBox="0 0 1200 900"><defs><style>.cls-1{fill:#9fbe3d;}.cls-2{fill:#422f25;}</style></defs><title>page0active</title><path class="cls-1" d="M-3.5,1.5C56,1.52,167,2.83,244.55,4.92,285.16,6,336.64,6.65,385.77,6.65c31,0,60.31-.25,84.85-.73,27.3-.53,55.09-.78,85-.78,55.32,0,109.54.91,162,1.78S824.27,8.71,879.62,8.71c29.89,0,57.69-.26,85-.79,7.68-.15,17.2-.38,28.21-.64,31.21-.75,73.94-1.79,110.9-1.79,43.67,0,70,1.47,78.37,4.35,18.2,6.3,14.88,74.54,12.45,124.36-.88,18.14-1.72,35.28-1.46,47.26.73,33.4.07,68.4-.56,102.25-.86,45.35-1.74,92.25.64,136.81,1.55,29.13,1.5,103,1.45,181.19,0,67.38-.08,137.06,1,176.36.11,3.74.3,8.17.52,13.29,1.25,28.37,3.33,75.85-7.79,93.26-2,3.08-11.38,8.25-52.29,8.25h0c-12.37,0-24.09-.47-31.09-.75l-5.32-.2c-23.25-.63-47-.94-72.7-.94-38,0-74.68.69-110.14,1.35s-68.74,1.29-103.26,1.29c-41.38,0-76.92-.91-111.85-2.88-9.33-.52-25.65-.77-49.89-.77-45.42,0-111.31.92-169.44,1.74C433.6,892.39,387.55,893,361,893c-6.4,0-11.57,0-15.39-.12-28.16-.55-64.59-.86-100-.86-68.12,0-166.45,1.1-249.17,6.34Z"/><path class="cls-2" d="M-2,3C57.82,3,167.59,4.34,244.51,6.42c40.63,1.1,92.11,1.73,141.26,1.73,31,0,60.33-.25,84.88-.73,27.29-.53,55.06-.78,84.92-.78,55.31,0,109.53.91,162,1.78s106.71,1.79,162.07,1.79c29.9,0,57.72-.26,85-.79,7.69-.15,17.2-.38,28.22-.64C1024.07,8,1066.79,7,1103.73,7c43.5,0,69.7,1.44,77.88,4.27,4.93,1.71,11.18,10.55,12.9,43,1.27,23.89-.18,53.64-1.46,79.89-.88,18.17-1.72,35.33-1.46,47.36.73,33.37.07,68.36-.56,102.2-.86,45.37-1.74,92.29.64,136.91,1.55,29.09,1.5,102.94,1.45,181.12,0,67.39-.08,137.08,1,176.39.11,3.75.3,8.19.52,13.32,1.24,28.19,3.31,75.37-7.56,92.38-1.45,2.27-9.33,7.56-51,7.56-12.34,0-24-.47-31-.75l-5.34-.2c-23.27-.63-47.06-.94-72.74-.94-38,0-74.7.69-110.17,1.35s-68.72,1.29-103.23,1.29c-41.35,0-76.87-.91-111.77-2.87-9.35-.53-25.7-.78-50-.78-45.43,0-111.33.92-169.46,1.74-48.75.68-94.79,1.33-121.32,1.33-6.39,0-11.55,0-15.36-.12-28.16-.55-64.6-.86-100-.86C178,890.56,80.42,891.65-2,896.8V3M-5,0V900c78.8-5.06,174.85-6.44,250.67-6.44,41.36,0,76.68.41,99.92.86,4,.08,9.18.12,15.42.12,58.31,0,207.39-3.07,290.78-3.07,22.3,0,39.89.22,49.8.77,38.55,2.17,75.49,2.88,111.94,2.88,70.19,0,138.6-2.64,213.4-2.64,23.51,0,47.64.26,72.66.94,5.19.15,20.14,1,36.45,1,23.07,0,48.86-1.61,53.55-9,13.34-20.87,8.2-82,7.51-107.39-2.26-83.66.49-302.61-2.44-357.59-4.15-77.9,1.63-161-.07-239-1-46,14-164-12-173C1172.8,5,1141,4,1103.73,4,1054,4,994.51,5.84,964.59,6.42c-29,.57-57.24.79-85,.79-110.66,0-213.37-3.57-324-3.57-27.75,0-56,.22-85,.78-25.44.5-54.69.73-84.82.73-48.81,0-100-.61-141.18-1.73C170.59,1.42,58.13,0-5,0Z"/><path class="cls-2" d="M0,296.69c5,3.31,4.4,5.89,0,9C-2,307,0,296.69,0,296.69Z"/><path class="cls-2" d="M0,596.1c4.46,3.51,4.46,6.36,0,10"/></svg>