<svg id="Layer_1" data-name="Layer 1" xmlns="http://www.w3.org/2000/svg" viewBox="0 0 300 300"><defs><style>.cls-1{fill:#be945b;}.cls-2{fill:#422f25;}.cls-3{fill:#e6e6e6;}</style></defs><title>tab2inactive</title><path class="cls-1" d="M302.5,299.93c-18-13.46-45.11-22.05-70-22.05a92.43,92.43,0,0,0-14.23,1.05c-5.23.81-10.46,2.05-15.51,3.25-8.24,1.95-16.76,4-25.26,4.11h-1.72c-32.4,0-68.88-15.45-97-28.92-8.81-4.21-16.39-9-24.42-14-4.67-2.93-9.51-6-14.63-8.89C25,226.08,19.86,205.43,18.14,193.87c-1-6.8,0-13.8,1-20.57l9.64-64.94C31.39,91,34.32,71.22,44.61,55.53c14.67-22.35,44.77-35.69,80.54-35.69h1.49c18.38.2,36.9,3.35,54.8,6.4,12.77,2.17,26,4.42,39.08,5.6,2.47.22,5.08.33,7.74.33C255.32,32.18,289,20.91,302.5-.1Z"/><path class="cls-2" d="M301,4.53V297c-18.22-12.66-44.39-20.63-68.52-20.63A95.37,95.37,0,0,0,218,277.44c-5.29.83-10.55,2.07-15.63,3.28-8.53,2-16.6,3.93-24.94,4.07h-1.69c-32.1,0-68.37-15.37-96.39-28.77-8.73-4.17-16.28-8.9-24.27-13.91-4.69-2.94-9.54-6-14.68-8.92-5.7-3.26-10.46-8.86-14.17-16.64a82.47,82.47,0,0,1-6.62-22.91c-1-6.58,0-13.47,1-20.13l3.51-23.68,6.12-41.26c2.56-17.26,5.46-36.82,15.58-52.23,7.67-11.7,19.19-20.71,34.21-26.8,13.26-5.37,28.84-8.21,45.07-8.21h1.47c18.27.2,36.73,3.34,54.57,6.38,12.79,2.17,26,4.43,39.19,5.61,2.52.23,5.17.34,7.88.34C254,33.68,285.77,23.53,301,4.53M304-6c-10.75,24.06-47.57,36.68-75.74,36.68q-3.93,0-7.61-.33c-31.48-2.83-62.38-11.66-94-12h-1.51C94,18.34,60.43,28.69,43.36,54.7c-10.29,15.68-13.29,34.89-16,53.44l-9.63,64.94c-1,7-2.07,14-1,21C19,209.64,25.29,228,38.93,235.8s25,16.16,39.14,22.94c29.2,14,65.2,29.06,97.69,29.06h1.74c13.9-.24,27.24-5.24,41-7.38a90.59,90.59,0,0,1,14-1c24.93,0,53.41,8.94,71.52,23.62V-6Z"/><g id="dyd2Ea"><path class="cls-3" d="M159,42.85a66.91,66.91,0,0,1,23.26,4.75c8.28,3.14,16.56,6.46,24.22,11,2.63,1.56,5,3.56,7.49,5.37.48.35.88.81,1.36,1.16A76.37,76.37,0,0,1,236.5,89.42c5.27,9.23,10.93,18.22,14.78,28.17a68.44,68.44,0,0,1,2,7.44,29.23,29.23,0,0,1,.73,3.34c.18,1.35.22,2.73.32,4.09a4.24,4.24,0,0,0,.09.88c1.3,4.77,1.07,9.6,1,14.48-.15,8.18-1.7,16.16-3.22,24.11a142.62,142.62,0,0,1-5.09,17.77c-1.73,5.21-3.89,10.26-6,15.32-1.7,4-4.41,7.06-6.53,10.63-3.1,5.23-7.53,9.36-11.63,13.71-2.88,3-6.61,5.38-10.17,7.73-4.61,3-9.33,6-14.19,8.62a42.67,42.67,0,0,1-8.6,3.33c-4.67,1.36-9.41,2.47-14.13,3.59-4.4,1-8.86,1.85-13.24,3-10,2.54-20.06,1.92-30.07.08-6.35-1.17-12.67-2.6-19-4.11a22.34,22.34,0,0,1-6.59-2.55c-4.85-3.06-9.84-5.89-14.71-8.92-5.48-3.4-9.92-8-14-13-1.29-1.56-2.44-3.24-3.72-4.82-.84-1-1.8-2-2.71-3a9,9,0,0,1-1.07-1.25c-3.49-5.65-7-11.28-10.42-17-5.79-9.64-9-20.32-12-31-1-3.54-1.84-7.13-2.82-10.68a31.54,31.54,0,0,1-.81-11.08c.52-6.36.62-12.76,2.07-19,.22-.95.57-1.86.85-2.79a28.05,28.05,0,0,0,1.25-4.37c.69-5.74,2.92-10.92,5.46-16,1.12-2.26,1.92-4.71,3.2-6.88,2-3.38,3.74-7.13,6.51-9.76,3.3-3.13,5.75-6.93,9.06-10s6.49-6.31,9.81-9.39a50.76,50.76,0,0,1,5.85-4.84c4.69-3.17,9.31-6.53,14.32-9.13a121.46,121.46,0,0,1,26.66-9.63,150.26,150.26,0,0,1,19.7-3.61A85.51,85.51,0,0,1,159,42.85ZM48.2,145.93a69,69,0,0,0,5.25,29.5,23.82,23.82,0,0,1,.95,2.89c1.84,6.54,4.07,12.93,7.64,18.75,3.13,5.12,6.43,10.13,9.65,15.2,4.07,6.43,8.18,12.82,14,17.92,3,2.66,5.65,5.68,9.53,7.42s7.14,4.14,10.57,6.43a27.64,27.64,0,0,0,9,4.06c4.86,1.14,9.75,2.16,14.61,3.29,10.43,2.43,21,3.16,31.49,1.06,8.4-1.68,16.7-3.92,25-5.95,1.93-.47,3.82-1.09,5.75-1.59a16.56,16.56,0,0,0,6.71-3.17,9.72,9.72,0,0,1,2.41-1.55c8.33-3.47,15.08-9.12,21.38-15.37,1.59-1.58,3-3.35,4.55-4.95a59.49,59.49,0,0,0,10.79-15c2.49-5,4.41-10.25,6.54-15.4,1.8-4.38,2.36-9.15,4.29-13.51.71-1.62.67-3.56,1.08-5.33a117.54,117.54,0,0,0,2.77-28.35,75.31,75.31,0,0,0-1-8.54,10.87,10.87,0,0,1-.18-1.12,48.81,48.81,0,0,0-6.36-21.73c-4.21-7.54-8.5-15-12.77-22.53A60.59,60.59,0,0,0,217.22,71c-1.93-1.57-3.74-3.32-5.77-4.77-3.43-2.45-6.95-4.78-10.5-7.07a36.22,36.22,0,0,0-3.36-1.46c-7.9-4-15.83-7.91-24.56-9.78-4.58-1-9.14-2.29-13.92-1.45a8.12,8.12,0,0,1-1.77-.07,41.19,41.19,0,0,0-5.43-.19A137,137,0,0,0,111.2,56.37,94.46,94.46,0,0,0,80,77.28c-2.6,2.65-5.06,5.46-7.76,8s-4.11,6.2-6.93,8.77c-4.42,4-6.45,9.59-8.65,14.92A151.06,151.06,0,0,0,51.5,124.1a102,102,0,0,0-2.79,12.58A81.16,81.16,0,0,0,48.2,145.93Z"/><path class="cls-3" d="M103.92,219.82c-3.64.38-4.34-.08-5.76-3-4.11-8.58-8-17.29-12.51-25.65a202.53,202.53,0,0,1-13.29-29.43c-1.67-4.77-3.64-9.44-5.59-14.11-.93-2.21-2.18-4.3-3.21-6.48-1.28-2.71-1.05-3.69,1-5.86a26.44,26.44,0,0,0,2.58-3.11c.64-.9.32-1.4-.78-1.46-2.72-.16-3-.67-1.46-3,3.21-5,6.49-9.85,10.83-14a45.85,45.85,0,0,1,16.82-10.53c5.85-2,11.74-4,17.85-4.8,6.39-.87,12.85-1.76,19.35-.83a48.13,48.13,0,0,1,5.31,1.11,2.75,2.75,0,0,0,3.26-1,52.43,52.43,0,0,1,15.2-12.84A45,45,0,0,1,165,80c10.23-2.28,19.81-.21,29,4.32,1.86.92,3.7,1.89,5.51,2.89a6.85,6.85,0,0,1,3.53,4.42,9.71,9.71,0,0,0,1.52,2.6c2.57,4,5.2,7.91,7.72,11.91.94,1.49,1.66,3.12,2.48,4.69,1.05,2,2.16,4,3.13,6.08q4.82,10.22,9.54,20.47,5.7,12.39,11.28,24.82a10.33,10.33,0,0,1,.8,2.66c.29,2.07.12,2.38-1.77,3.24-.83.38-1.1.78-.79,1.64.26.71.39,1.47.62,2.19.7,2.25-.51,3.78-2.74,3.29s-4.52-1.32-6.82-1.82c-2.52-.55-5.07-1-7.63-1.31a31.81,31.81,0,0,0-12.3,1.27,54.14,54.14,0,0,0-5.89,2.27c-6.61,2.57-12.41,6.5-18,10.8-1.64,1.26-1.66,1.47-.56,3.2,5.09,8,10.29,15.92,15.23,24,2.75,4.5,5.09,9.25,7.61,13.89a2.58,2.58,0,0,1-.35,2.83c-.81,1.32-1.48,2.72-2.23,4.07-.22.39-.43,1-.78,1.1-2,.67-4,2-6.3,1.54a3.4,3.4,0,0,1-2.47-1.58c-4.1-6.71-8.29-13.37-12.29-20.14-2.32-3.93-4.33-8-6.49-12.06-.58-1.06-1.21-2.09-1.92-3.32-2.54,2.66-5.59,2.61-8.67,2.52-4.06-.13-8.12-.25-12.18-.31a20.54,20.54,0,0,0-3.66.3c-3.37.53-6.85.76-10.06,1.81a84,84,0,0,0-11.6,5.07,103.9,103.9,0,0,0-9.37,5.55c-3.44,2.23-6.76,4.63-10.13,7-1.51,1-2.28.91-3.3-.64C104.41,220.79,104.18,220.29,103.92,219.82ZM154,107.6a8.8,8.8,0,0,0,1.3.26c7.29.25,14.24,1.72,20.52,5.68,1.9,1.19,2.46,1,3.48-1.2a6.37,6.37,0,0,0-.55-.46,5.47,5.47,0,0,1-2.5-5.46,2.92,2.92,0,0,1,4.3-2.51,6.73,6.73,0,0,1,2.47,2.73,10,10,0,0,1,.61,3.33c.12,1,.41,1.79,1.5,1.9,1.75.17,3.52.24,5.42.37-.31-1.11-.58-2-.79-2.89a6.27,6.27,0,0,1,1.51-6.12,1.9,1.9,0,0,1,3.09,0,6.28,6.28,0,0,1,1.49,7.18c-.11.27-.17.56-.26.84-.22.67.06,1,.69,1.24,1.81.57,3.49.58,4.93-.91.69-.72,1.47-1.36,2.2-2,1.62,1.73,1.5,3.18-.26,4.42a9,9,0,0,1-9,1,8.44,8.44,0,0,0-2.81-.35c-2.26-.08-4.59.21-6.79-.21-2-.38-3.23.62-5.13,1.52,5.74,4.81,10,10.34,11.84,17.35,3-.62,4.06-1.1,5-2.31-.78-1.25-1.61-2.53-2.39-3.83a5,5,0,0,1,.48-6.22,3.33,3.33,0,0,1,3.53-1.16c1.46.33,2.83.9,3.27,2.47.63,2.2,1.11,4.45.31,6.74a7.26,7.26,0,0,0-.12,1.3c1.43-.48,2.66-.85,3.86-1.31.78-.3,1-.89.75-1.75-.5-1.79-.93-3.6-1.32-5.42a3.63,3.63,0,0,1,1.43-3.81,3.39,3.39,0,0,1,4,.43,9.89,9.89,0,0,1,2.25,3.41c.8,2-.13,4-.9,5.86-.52,1.27,0,2.12,1.41,2.18.33,0,.7-.17,1-.09a2.37,2.37,0,0,1,1.29.65,1.26,1.26,0,0,1-.13,1.81,4.38,4.38,0,0,1-5.49,0c-1.51-1.23-2-1.29-3.61-.32a8.41,8.41,0,0,1-6,1.1,2.22,2.22,0,0,0-1.57.17c-1.8,1.53-3.66,2.86-6,2.76l2.1,15.1a7.25,7.25,0,0,0,4.47-1.62l-1.32-2.3a6.46,6.46,0,0,1-.47-5.63,3.43,3.43,0,0,1,5.38-1.68c2.49,1.78,3.12,3.49,2.36,6.46-.08.32-.17.65-.25,1-.34,1.46-.12,1.83,1.41,2a3.46,3.46,0,0,0,1.84-.29c1.16-.64,2.23-1.45,3.29-2.16a3.2,3.2,0,0,0-.13-.42,6.91,6.91,0,0,0-.44-.62,7.55,7.55,0,0,1-1.32-6.62,3.81,3.81,0,0,1,2.93-3c1.48-.38,2.38.64,3.2,1.62a5.1,5.1,0,0,1,1,4.55,16,16,0,0,0-.57,2.07c-.05.64,0,1.56.38,1.9a3.17,3.17,0,0,0,2,.4c.7,0,1.38-.43,2.09-.49a1.49,1.49,0,0,1,1.53,2.33,2.62,2.62,0,0,1-2.11,1.6,7.53,7.53,0,0,1-4.92-.81,2,2,0,0,0-2.6.28,22.64,22.64,0,0,1-4.19,2.59,3.84,3.84,0,0,1-2.77,0,6.87,6.87,0,0,0-5.41-.06,55.48,55.48,0,0,1-5.33,1.63c-.71.18-.89.44-1,1.14-.64,3.84-1.32,7.66-2.08,11.47-.33,1.63-.9,3.21-1.36,4.81l.29.28c.93-.6,1.85-1.21,2.79-1.8a47.75,47.75,0,0,1,17.15-6.36c6.82-1.18,13.67-2,20.49.2.25.08.72.15.8,0,.76-1.07,1.81-.85,3-.56a11.74,11.74,0,0,0-.31-1.52c-.56-1.55-1.08-3.13-1.76-4.63-5.6-12.36-11.33-24.67-16.83-37.08a95.54,95.54,0,0,0-9.39-16.94,97.51,97.51,0,0,1-5.13-8.74c-.65-1.14-.8-2.67-2.57-2.76-.16,0-.29-.29-.46-.42a23.14,23.14,0,0,0-3-2.11c-5.44-2.74-10.8-5.65-17.11-6-4.23-.21-8.48-1-12.6.45a75.07,75.07,0,0,0-8.66,3.57A47.8,47.8,0,0,0,140,100.85a2.4,2.4,0,0,0-.32,2,55,55,0,0,0,2.38,5.32,1.36,1.36,0,0,0,1,.61c1.31,0,2.62-.19,3.92-.34a6.27,6.27,0,0,0,4.44-2.65,1.63,1.63,0,0,0-.19-2.54,7,7,0,0,1-2.4-6.5c.2-2,.93-3.16,2.25-3.46a3.71,3.71,0,0,1,3.79,2,5.18,5.18,0,0,1,.6,1.39c.38,1.3.71,2.61,1.05,3.92.55,2.16,1.18,2.68,3.36,2.08a9,9,0,0,0,3-2c.89-.74.77-1.48-.18-2.25a8.11,8.11,0,0,1-3.07-6.3,3.79,3.79,0,0,1,2.64-3.78,3.23,3.23,0,0,1,3.6,1.18,9.62,9.62,0,0,1,1.91,6.19,17.06,17.06,0,0,0,.16,2.58c1.8-.19,3.41-.26,5-.55,1.19-.21,1.52-1,.81-1.94-1.79-2.35-1.77-4.94-1.23-7.63.34-1.63,1.28-2.89,2.26-2.92,1.6-.06,2.38,1.07,3,2.3a2.48,2.48,0,0,1,.25.58,12.3,12.3,0,0,1,.36,6.51c-.36,1.5,0,2.37,1.46,2.75A20.8,20.8,0,0,0,185,98c1.71,0,2-.75,1.34-2.32-.52-1.16-1.06-2.31-1.46-3.51a3.61,3.61,0,0,1,1.82-4.07c1.43-.65,2.76-.2,3.81,1.3a5.74,5.74,0,0,1,.72,5.21,1.84,1.84,0,0,0,2.14,2.47,6.39,6.39,0,0,0,1.63-.63c.77-.35,1.55-.9,2.2.17a1.81,1.81,0,0,1-.67,2.54c-1.94,1-4,1.57-6,.42a2.52,2.52,0,0,0-2.75.09,8.24,8.24,0,0,1-7.19.85c-1.09-.34-2.17-.73-3.23-1.15a1.83,1.83,0,0,0-2.38.48,2,2,0,0,1-1.2.61,49.55,49.55,0,0,1-5.42.57,3.56,3.56,0,0,0-3.13,1.55c-2.09,3.06-5,4-8.54,3.23C155,105.51,154.52,105.81,154,107.6ZM74.82,131.67l1.81-.38a18.85,18.85,0,0,0,2-.48,1.87,1.87,0,0,0,1.05-3.17c-.29-.41-.74-.72-1-1.15A17.34,17.34,0,0,1,76.92,123a4.12,4.12,0,0,1,3-5,2.31,2.31,0,0,1,1.81.47c2.13,1.9,2.56,4.6,2.92,7.22.25,1.77.22,2,1.93,2.47s3-.43,4.11-1.6a1,1,0,0,0,0-1.6,18.13,18.13,0,0,1-2.34-3,5.15,5.15,0,0,1,1.12-6.87,1.53,1.53,0,0,1,.87-.43,5.3,5.3,0,0,1,5.08,4.48c.17,1,.25,2.11.4,3.15.22,1.45,1,2,2.29,1.37a17.07,17.07,0,0,0,3.1-2.13c.86-.69.84-1.41.13-2.37a28.6,28.6,0,0,1-2.85-4.75,3.22,3.22,0,0,1,4.8-3.74,5.5,5.5,0,0,1,2.66,3.41c.28,1.15.68,2.27.9,3.43s.89,1.29,1.85,1,1.76-.58,2.65-.83c1.84-.54,2-1.33.77-2.74a16.58,16.58,0,0,1-2.5-3.77,3.93,3.93,0,0,1,2.5-5.57,4.2,4.2,0,0,1,5.3,3.22,34,34,0,0,1,.48,4.28c.06.89.47,1.24,1.3,1.1,2.42-.4,5.1-1.73,4.63-5.35a17.25,17.25,0,0,1-.12-2.78c0-.91.59-1.24,1.48-1a2.44,2.44,0,0,1,2.06,2.76,4.18,4.18,0,0,0,2.29,3.82c1.39.84,2.72,1.68,4.36.39a15.4,15.4,0,0,1,2.58-1.35c2.34-1.19,2.32-1.18,1.42-3.68-.62-1.71-1.05-3.54-2.94-4.36a23.28,23.28,0,0,0-4.79-1.92,44.24,44.24,0,0,0-6.82-.46,27.19,27.19,0,0,0-4.42.16c-2,.26-4.08.7-6.11,1.08-3.9.72-7.81,1.36-11.68,2.21a39.09,39.09,0,0,0-5,1.8c-2.8,1.06-5.81,1.78-8.37,3.26a50.1,50.1,0,0,0-18,17.38,2.4,2.4,0,0,0-.24,2.26,132.61,132.61,0,0,0,6.69,14.9c1.4,2.79,2.8,5.59,4,8.47,3.45,8.23,6.65,16.57,10.25,24.73,2.52,5.72,5.56,11.21,8.3,16.84,1.69,3.45,3.23,7,4.87,10.46.42.9,1,1.74,1.32,2.35l4-3.5c5.11-4.53,10.69-8.15,17.7-8.9,1-.1,2-.23,3-.42a17.26,17.26,0,0,0,1.94-.64,21.76,21.76,0,0,1-1.83-1.47,8,8,0,0,0-7.67-2.46,4,4,0,0,0-3,1.73,7.84,7.84,0,0,1-8.77,3.62,1.86,1.86,0,0,0-2.34,1c-.85,1.93-2.57,2.28-4.33,2.62-1,.2-1.12-.63-1.39-1.28s0-1,.71-1.27a9.31,9.31,0,0,0,2.29-1c1.23-.83,1.24-1.74.23-2.78-.85-.88-1.73-1.74-2.5-2.69-1.27-1.56-1.21-3.5.07-5.42a3.18,3.18,0,0,1,3.94-1.44c1.93.53,2.76,1.65,2.9,3.94.08,1.31.08,2.63.19,3.94s.81,2,2.22,1.71a7,7,0,0,0,5.36-4,2.57,2.57,0,0,0-.15-2.2,7.94,7.94,0,0,1-1.35-5.29,2.14,2.14,0,0,0-.22-1.33c-1-1.21-2-2.33-3.16-3.6-.33.54-.55.88-.76,1.24a7.36,7.36,0,0,1-7.64,3.37c-1.44-.33-2.52-.19-3.39,1.15a1.75,1.75,0,0,1-2.58.33c-.9-.79-.54-1.55.08-2.32,1.31-1.6,1.25-1.91,0-3.63a12,12,0,0,1-1.81-3.15,4.84,4.84,0,0,1,3.24-5.83c1.49-.41,3.45,1.37,4,3.66a9.92,9.92,0,0,1,.28,1.63c.12,1.18.19,2.36.29,3.54s.6,1.64,1.79,1.5a3.29,3.29,0,0,0,3-3.95,47.4,47.4,0,0,1-.13-4.77,8.8,8.8,0,0,0,0-1.26c-.37-2.22-.75-4.43-1.16-6.63a14,14,0,0,0-.51-1.59l-3.66,2.8a4.6,4.6,0,0,1-4.15,1,3,3,0,0,0-3,.86,48,48,0,0,1-4,2.74l-.47-.33c0-.43,0-1,.19-1.28a8.67,8.67,0,0,1,1.67-1.7c1.82-1.46,1.87-2.38,0-3.77a7.09,7.09,0,0,1-2.79-4.81,4.34,4.34,0,0,1,2-4.64c1.55-1,3.16-.65,4.67.28a4.81,4.81,0,0,1,2.36,4.25,17.62,17.62,0,0,1-.56,3.72c-.25,1.18.16,1.71,1.29,1.31a8,8,0,0,0,2.12-1.32c.67-.51.63-1.1,0-1.7-2.46-2.4-2.38-5.31-1.41-8.26.86-2.6,4.56-3.21,5.93-1.07a4.74,4.74,0,0,0,.66.72c1.15-3.75,2.27-7.44,3.4-11.13-.26-.07-.31-.11-.34-.09a1.91,1.91,0,0,0-.38.31,10.27,10.27,0,0,1-7.66,3.68,2.81,2.81,0,0,0-1.83.95,9.56,9.56,0,0,1-7.11,3.42,3.8,3.8,0,0,0-3.22,1.92,5.5,5.5,0,0,1-3.66,2.54,5.1,5.1,0,0,1-2.78-.32c-.41-.17-.55-1.11-.66-1.73a3.19,3.19,0,0,1,1.23-.49c.66-.14,1.35-.1,2-.26,2-.51,2.44-1.93,1-3.42-.53-.55-1.09-1.07-1.61-1.62-1.75-1.85-1.84-3.36-.44-5.45a2,2,0,0,1,2.52-.91,4,4,0,0,1,3,3.09c.2.95.32,1.92.59,2.86a1.21,1.21,0,0,0,.76.78,6.28,6.28,0,0,0,5-1.15c1.55-1.24,1.65-2.23.08-3.4a4.47,4.47,0,0,1-1.68-4.73,4.75,4.75,0,0,1,1.5-2.15,4.56,4.56,0,0,1,1.5-.66c2.09-.9,3.44-.53,4.57,1.44a7.45,7.45,0,0,1,.69,2.41c.2,1.06.3,2.15.48,3.55a24,24,0,0,0,2.38-1.18c1.61-1.06,1.7-1.7.49-3.16a7.56,7.56,0,0,1-1.38-6.48,2.32,2.32,0,0,1,2.82-1.93,4,4,0,0,1,3.54,4.08c0,1.19.12,2.38.19,3.69.33-.17.43-.18.47-.24.46-.71.91-1.43,1.35-2.15,2.88-4.66,5.83-9.24,10.94-11.85a5.46,5.46,0,0,0,.92-.68l1.75-1.54c-1.58-1.87-2.17-1.8-3.82-.47-2,1.62-4.3,2.89-7.07,2.56-1.36-.16-2.42.07-3,1.51-.13.35-.57.61-.9.87a11.72,11.72,0,0,1-7.29,2.16,4.51,4.51,0,0,0-3.25,1.39c-1.91,1.86-3.94,3.74-6.74,4A6.65,6.65,0,0,0,92.7,129a7.27,7.27,0,0,1-8,1.78,1.65,1.65,0,0,0-2,.48,8.92,8.92,0,0,1-5.24,2.87C75.5,134.54,74.74,133.85,74.82,131.67ZM191,149c-.22-2-.31-4.84-.87-7.6a54.92,54.92,0,0,0-3.82-12.06,18.88,18.88,0,0,0-4.67-6.54,9.75,9.75,0,0,1-2-1.94c-1.21-1.92-3.08-3.09-4.84-4.3a33.59,33.59,0,0,0-13.56-5.08c-8.42-1.43-16.48.45-24.52,2.6a2.91,2.91,0,0,0-1.77,1.31,4.57,4.57,0,0,1-2.64,2.18c-4,1.88-7.78,4-10.53,7.53-5.75,7.45-9.49,15.72-10.39,25.18-.45,4.78-.71,9.55.56,14.25,2.12,7.84,7.4,13.45,13.24,18.65,1.75,1.56,3.65,3,5.51,4.41,1.46,1.13,2.84,2.56,4.51,3.23a60.07,60.07,0,0,0,9.23,2.74,42.91,42.91,0,0,0,19.61-.64,28.9,28.9,0,0,0,3.7-1.28c4-1.58,6.89-4.75,9.74-7.78C186.45,174.32,190.58,162.82,191,149Zm-51,47.14-.08-.44a10.5,10.5,0,0,0-1.58-.07c-3.89.52-7.8,1-11.68,1.61a27.94,27.94,0,0,0-17.13,9.34c-1,1.18-1.87,2.51-2.86,3.72a2.48,2.48,0,0,1-4.28-.73c-2.33-5.62-4.61-11.27-7.15-16.79-3.91-8.49-8.51-16.65-11.84-25.41-1.8-4.75-3.35-9.6-5.42-14.22-2.54-5.66-5.5-11.14-8.29-16.69a7.83,7.83,0,0,0-.59-.85c-.56.53-1,.94-1.48,1.39-1.46,1.5-1.47,2.09-.44,3.9a37.42,37.42,0,0,1,2.46,4.85c1.61,4,3.17,8.12,4.6,12.24a183.75,183.75,0,0,0,12.7,29.16c4.65,8.41,8.81,17.06,13.13,25.62.55,1.09,1.15,2.14,1.79,3.33l1.78-1.23c5.16-3.59,10.27-7.24,15.48-10.74a50.14,50.14,0,0,1,19.25-7.51C138.84,196.5,139.37,196.29,139.91,196.13Zm38.81-8.83c-1.65,1.56-3.21,2.92-4.61,4.43a2.06,2.06,0,0,0-.2,1.82c.81,1.95,1.77,3.83,2.72,5.72,1.62,3.2,3.27,6.38,4.91,9.57a6.11,6.11,0,0,0,.38.65l7,10.72a2.92,2.92,0,0,1,.33.69c1.33,4.54,4.76,7.73,7.44,11.39,1.05,1.42,4,.79,4.88-.73a5.54,5.54,0,0,0,.13-5.79c-1.94-3.71-3.9-7.4-6-11-1.4-2.45-3-4.8-4.52-7.17-.92-1.42-2-2.74-2.85-4.19-2.79-4.74-5.5-9.52-8.26-14.27A18.93,18.93,0,0,0,178.72,187.3Zm3.7-3.7c.42,0,.52,0,.57,0,.42-.29.81-.61,1.23-.9,8-5.57,16-11.23,25.9-13.11,4.75-.9,9.51-1.7,14.25.1a9.2,9.2,0,0,0,1.51.15c1.68.29,3.36.61,5,.93.88.17,1.75.37,2.69.57-.08-2.73-.89-3.77-3-4.47a34.1,34.1,0,0,0-13.55-1.22c-9,.67-17.44,2.68-24.77,8.24a8.44,8.44,0,0,1-2.12,1.12C186.16,176.52,184.62,180.19,182.42,183.6Zm-41.35,16.65-.15-.53c-.77.09-1.54.12-2.29.27a34.94,34.94,0,0,1-3.57.86,26.91,26.91,0,0,0-9.7,3.18c-6.94,3.62-13.09,8.4-19.31,13.08,0,0,0,.15-.1.53a6,6,0,0,0,2,.05,12.89,12.89,0,0,0,2.67-1.41c4.41-2.83,8.63-6,13.26-8.45,5.11-2.67,10.59-4.64,15.91-6.93C140.24,200.72,140.65,200.47,141.07,200.25Zm.5-.75.06.57a16.67,16.67,0,0,0,2.45,0,68.37,68.37,0,0,1,12.21-1.1c3,.11,6.09-.19,9.14-.17a9.77,9.77,0,0,0,4.76-1.06c.75-.39,1.46-.74,1.05-1.81s-1-1.56-2.24-1.18c-1.89.58-3.72,1.54-5.65,1.82-4.13.6-8.31.87-12.47,1.29a21.51,21.51,0,0,0-2.22.39c-.65.13-1.28.35-1.93.46C145,199,143.29,199.23,141.57,199.5ZM96.81,157a4.63,4.63,0,0,0,.57-4.1c-.33-.85-.87-1.56-1.88-1.3s-1.27,1.19-1.15,2.12A3.92,3.92,0,0,0,96.81,157Zm101.62-28.44a6.83,6.83,0,0,0,0-4.92c-.24-.74-.8-1.24-1.52-.89a1.87,1.87,0,0,0-.87,1.41C196.08,125.89,197.05,127.2,198.43,128.55Zm3.32,18.37a24.16,24.16,0,0,0,.24-3.55c0-.48-.7-.91-1.08-1.37-.38.38-.95.7-1.1,1.16C199.29,144.68,200.06,146.15,201.75,146.92ZM93.12,123.13c.51-2.74-.52-4.74-2.27-4.52A4.19,4.19,0,0,0,93.12,123.13Zm21.65-9.84a23.57,23.57,0,0,0-.06-3.5c0-.36-.79-.78-1.26-.86-.26,0-.91.64-.88.93A3.77,3.77,0,0,0,114.77,113.29Zm-9.71,35.65c-1.31,2-1,3.62.88,4.48C107,151.83,106.75,150.69,105.06,148.94Zm-2.71-14.88c-.33-1-.13-2.12-1.3-2.08-.44,0-1.12,1-1.19,1.58a1.41,1.41,0,0,0,1.5,1.63C101.7,135.18,102,134.46,102.35,134.06ZM102,174.13c-.13-3.09-.48-3.94-1.85-4.6A3.74,3.74,0,0,0,102,174.13Zm51.62-73.34c.27-2-.23-3.1-1.58-3.67C151,98.77,151.8,100.62,153.58,100.79Zm11.13-4.61a4,4,0,0,0-1.15-4.34C162.49,93.32,162.83,94.69,164.71,96.18Zm-57.5,92.47.44-.15-1.05-3.89C104.94,186.3,105.27,187.63,107.21,188.65ZM208.6,121.14c-1.19,1.21-1,2.64.37,3.72A2.7,2.7,0,0,0,208.6,121.14Zm-15.79-11.35.42,0c1.08-1.37.91-2.6-.88-3.5C192.53,107.63,192.67,108.71,192.81,109.79Zm-89.44,7.34c.59-2,0-2.9-2-3.43Zm109.86,25.56c1.05-1.2,1-1.94-.24-2.85C212,141,212.07,141.57,213.23,142.69Zm-33.71-35.6a2.44,2.44,0,0,0,.89,2.63C181.2,108.54,181.09,108.2,179.52,107.09Zm-3.86-16.8-.55.07c.1.78.2,1.57.29,2.35l.64-.09C175.92,91.84,175.79,91.07,175.66,90.29Z"/><path class="cls-3" d="M152.11,188.53a36.29,36.29,0,0,1-34.3-23.31A31.68,31.68,0,0,1,116,153a50.56,50.56,0,0,1,1.86-13.79c2.86-9.09,8.17-16.21,16.87-20.43,7.63-3.71,15.65-4.4,24-3.07,13.55,2.17,20.94,11.11,25.86,22.88a29.22,29.22,0,0,1,1.32,18.31A47.17,47.17,0,0,1,175,178.49C168.92,185.15,161.56,188.37,152.11,188.53Zm-32.7-35.9a25.6,25.6,0,0,0,1.35,10.82c4.24,11.45,12.54,18.41,24.32,21,9.8,2.16,18.78.25,26.19-7a39.72,39.72,0,0,0,9.8-15.83c1.42-4.1,2.58-8.29,2.38-12.66-.35-7.74-3.62-14.35-8.4-20.28-3.37-4.17-7.46-7.43-12.73-8.8a39.32,39.32,0,0,0-15.6-1.27c-11.75,1.69-20.22,7.7-24.72,18.88A37.68,37.68,0,0,0,119.41,152.63Z"/><path class="cls-3" d="M127.81,140.07c1.21,1,2.46,2,3.59,3.1.62.6,1.08.79,1.84.28,1.69-1.13,3.42-2.19,5.13-3.28a1.15,1.15,0,0,0,.4-1.82c-.28-.43-.56-.85-.81-1.29-.85-1.49-.7-2,1-3.07.47.71,1,1.41,1.41,2.15,1.16,2,2,2.15,4.16,1.42a41.61,41.61,0,0,1,5.57-1.12c.41-.08.83-.13,1.35-.21V133c0-.77.24-1.36,1.11-1.4s1.3.51,1.34,1.34a10.64,10.64,0,0,0,.11,2.27c.16.55.66,1.32,1.12,1.41,2.32.43,4.69.63,7,1a2.1,2.1,0,0,0,2.61-1.58c.18-.5.47-1,.9-1.86a10.14,10.14,0,0,1,1,1.51,2.54,2.54,0,0,1,.14,1.25c-.39,2.55,1.5,3.38,3.22,4.34a1.48,1.48,0,0,0,2-.42c.7-.84,1.41-1.67,2.1-2.48,1.89.77,2.17,1.62,1.11,3.23-1.25,1.9-1.25,1.94.47,3.37a19,19,0,0,0,1.53,1.14,4.54,4.54,0,0,1,1.24,6.56c-.78,1.15-1.55,2.31-2.35,3.46a11.21,11.21,0,0,1-.9,1.06c-1.37,1.51-2.75,3-4.2,4.59l1.17,1a2.48,2.48,0,0,1,.81,2.64,1.71,1.71,0,0,1-.89,1.09,1.64,1.64,0,0,1-1.25-.58c-.77-.82-1.44-1.74-2.19-2.68-1.86,1.25-3.59,2.38-5.27,3.58a1.27,1.27,0,0,0-.29,1c.09.66.43,1.29.5,2a1.51,1.51,0,0,1-1.34,1.83c-1,.16-1.28-.6-1.44-1.39-.11-.58-.2-1.16-.31-1.8a3.55,3.55,0,0,0-.63-.05c-2.8.44-5.59.91-8.39,1.31-.79.11-1.12.42-1.08,1.21,0,.61.09,1.51-.84,1.33-.78-.15-2.08-.69-2.11-1.13-.12-1.74-1.06-2-2.49-2.22a39.75,39.75,0,0,1-4.1-1.31c-2-.54-2-.47-3.1,1.16-.31.45-.41,1.37-1.34,1a1.43,1.43,0,0,1-.89-2c.62-1.4,0-2.08-1.18-2.67-.86-.45-1.66-1-2.48-1.52a1.54,1.54,0,0,0-2.16.3,9.15,9.15,0,0,1-1.42,1.43,1.65,1.65,0,0,1-1.37.28,1.57,1.57,0,0,1-.63-1.27,3.77,3.77,0,0,1,.69-1.72c.81-1.23.83-1.69-.23-2.75-1.51-1.54-3-3-4.57-4.58-1.07-1.06-1.09-1.45,0-2.5q3.27-3.26,6.58-6.49c.46-.45.61-.81.2-1.4a14.38,14.38,0,0,1-1.52-2.63,6.5,6.5,0,0,1-.23-1.94Zm25.38-.57c.35,3.44,1.81,5.95,4.8,7.28,2.54,1.12,5.22,1.92,7.83,2.88,1.06.4,2.33.74,2.31,2.18s-1.33,1.47-2.28,1.8c-4.92,1.75-8.57,4.84-10.5,9.78a5.79,5.79,0,0,0-.41,1.83c0,.9.43,1.24,1.3.84,2.71-1.27,5.45-2.49,8.12-3.83a5.74,5.74,0,0,0,3-3.63,50.25,50.25,0,0,0,1.38-6c.61-4.06-1-7.45-3.51-10.48a3.32,3.32,0,0,0-1.35-.92A32.57,32.57,0,0,0,153.19,139.5Zm-.95,5.46a37.08,37.08,0,0,1-10.06,10.27,21.69,21.69,0,0,1,10,9.16c.36-1.14.63-1.89.82-2.66a7.84,7.84,0,0,1,2.75-4.54c1.65-1.29,3.13-2.81,4.68-4.23.42-.39.84-.8,1.38-1.32C158.26,150,154.84,148.33,152.24,145Zm-14.79,18.61c-.85-2.31-1.73-4.27-2.29-6.33-.92-3.4,0-6.69,1-9.94.21-.68.38-1.38.63-2.3a36.93,36.93,0,0,0-10.39,7.63c-1.39,1.56-1.49,1.66,0,3,2.44,2.14,5,4.17,7.55,6.13A24.62,24.62,0,0,0,137.45,163.57Zm.35-9.6a23.45,23.45,0,0,0,2.41-1.35c2.07-1.54,4.12-3.1,6.12-4.73,2.22-1.81,3.08-4.4,3.75-7,.08-.3-.52-1.13-.74-1.1-2.32.26-4.74.19-6.6,2.06a19.06,19.06,0,0,0-5,10.19A9.53,9.53,0,0,0,137.8,154Zm11.31,12.12c-.51-4.35-6.78-9-10.57-8C138.75,163.05,144,167,149.11,166.09Zm22.71-10.82c2.36-1.17,3.46-3.29,4.14-5.72a1,1,0,0,0-.27-.78,36.38,36.38,0,0,0-3.13-3,5.77,5.77,0,0,0-1.88-.65C171.07,148.65,171.44,151.89,171.82,155.27Z"/></g></svg>