<svg id="Layer_1" data-name="Layer 1" xmlns="http://www.w3.org/2000/svg" viewBox="0 0 300 300"><defs><style>.cls-1{fill:#be945b;}.cls-2{fill:#422f25;}.cls-3{fill:#e6e6e6;}</style></defs><title>tab3inactive</title><path class="cls-1" d="M302.5,298.5c-36.23,0-67.38-1.28-103.36-2.73L180.56,295l-4-.16c-37.17-1.43-64-2.47-100.92-14.36A117,117,0,0,1,44.2,265.05c-10.9-7.81-17.65-16.38-20.06-25.47-1.63-6.16-6.34-26.87-7.55-33.48-9-49.56-5.35-80.5,4.63-120.25,4.21-16.76,16.48-32.84,26.7-45C57.46,29.53,76,22.62,104.52,19.76c8.35-.83,16.86-1.26,25.28-1.26a254.6,254.6,0,0,1,61,7.41c4.33,1.07,8.74,2.28,13,3.45,13.87,3.8,28.21,7.74,42.72,7.74,1.56,0,3.11-.05,4.63-.14,18.44-1.09,42.74-20.16,51.33-38.2Z"/><path class="cls-2" d="M301,4.76V297c-35.56-.07-66.32-1.3-101.79-2.72-6.07-.25-12.25-.5-18.59-.74l-4-.16c-38.44-1.48-63.83-2.46-100.52-14.29C56,272.6,30.64,258.25,25.59,239.2c-1.63-6.15-6.32-26.79-7.52-33.37-4.25-23.26-5.82-42.75-5-61.33.82-17.45,3.68-34.88,9.55-58.29C26.81,69.76,39,53.85,49.07,41.83c9.28-11,27.47-17.75,55.6-20.57a252.71,252.71,0,0,1,85.79,6.11c4.31,1.06,8.71,2.27,13,3.44,14,3.83,28.4,7.79,43.11,7.79,1.59,0,3.17-.05,4.71-.14,10.36-.62,23.41-6.91,34.9-16.82A76.17,76.17,0,0,0,301,4.76M304-11c-2.61,20.23-32.56,45.25-52.92,46.46-1.52.09-3,.14-4.54.14-18.76,0-37-6.62-55.36-11.14a256,256,0,0,0-86.81-6.19c-19.51,2-45,6.63-57.6,21.63-11,13.12-22.83,28.95-27,45.58C8.91,128.71,6.47,159,15.12,206.37,16.3,212.83,21,233.61,22.69,240c5.5,20.77,32,35.4,52.49,42,38.38,12.37,65.26,13,105.33,14.59C224.3,298.24,260.87,300,304,300V-11Z"/><g id="fXjfET"><path class="cls-3" d="M149.59,40.25c7-.49,13.8,1.23,20.66,2.23A131.19,131.19,0,0,1,192.38,48c3.31,1.09,6.38,2.9,9.58,4.35,1.26.57,2.55,1.1,3.86,1.59a4.1,4.1,0,0,1,2.51,1.74c.29.51,1.07.76,1.65,1.1,1.38.8,2.82,1.51,4.16,2.37,5.61,3.62,10.1,8.39,14.39,13.46A131.69,131.69,0,0,1,246,98.19a116.72,116.72,0,0,1,11.41,34.44c.74,4.72,2.16,9.34,2,14.17-.09,2.7-.42,5.39-.68,8.08-.52,5.51-1,11-1.62,16.54a20.66,20.66,0,0,1-1,5.2c-2.78,7.26-5.26,14.7-8.72,21.63a126.73,126.73,0,0,1-17.6,26.45,104.71,104.71,0,0,1-16.38,15.11c-4.23,3.19-8.47,6.33-13.4,8.39-1.52.64-3.1,1.12-4.63,1.72-3.57,1.4-7.13,2.85-10.7,4.26a30.41,30.41,0,0,1-4.27,1.57c-8,1.84-16,3.71-24.26,3.81-3.51.05-7,.51-10.5.54-3,0-6-.28-9-.48-.71-.05-1.4-.3-2.11-.39-1.5-.19-3-.35-4.5-.52a6.15,6.15,0,0,1-.75-.07c-9.55-2.32-19.09-4.75-27.84-9.35-4-2.07-7.54-4.81-11.3-7.26-1.59-1-3.14-2.15-4.78-3.11-5.32-3.15-9.55-7.45-13.63-12-2-2.22-3.49-4.71-5.31-7s-3.24-4.84-4.84-7.27a3.46,3.46,0,0,0-.44-.62c-4.26-4.16-6.31-9.66-8.82-14.84-5.38-11.08-8.42-22.92-10.68-34.95-1.26-6.71-1.61-13.54.1-20.3a7.44,7.44,0,0,0,.18-1.89,80,80,0,0,1,6.42-32.25c1-2.45,1.71-5,2.56-7.55a2.72,2.72,0,0,1,.29-.7c3.56-4.91,6.89-10,10.75-14.68,5.5-6.64,11-13.32,18.17-18.34,6-4.25,12-8.67,18.26-12.61,3.07-1.94,6.66-3.12,10.11-4.37a214.92,214.92,0,0,1,28.88-8.31c4-.83,8.14-.89,12.21-1.31ZM44,153.66c0,.45,0,.66,0,.87.22,3,.08,6.07.74,9a152.08,152.08,0,0,0,4.34,15.87c1.12,3.23,1.84,6.61,3.1,9.79a117.35,117.35,0,0,0,19,31.47,42.27,42.27,0,0,1,2.81,3.59,35.42,35.42,0,0,0,11.19,10.33c.9.56,1.86,1,2.73,1.61,2.91,2,5.76,4.16,8.71,6.13,3.94,2.62,7.85,5.34,12.42,6.82,3.57,1.16,7.17,2.27,10.79,3.29,3,.86,6.13,1.64,9.23,2.3a68.57,68.57,0,0,0,14.22,1.61c1.77,0,3.55.46,5.3.37a152,152,0,0,0,26-3.26c3-.7,6.08-1.5,9-2.49s6-2.51,9.1-3.55c8.63-2.93,16.1-7.77,23-13.58,6.27-5.26,11.31-11.61,16.22-18.1,4.6-6.09,9.13-12.2,12.24-19.23,1.43-3.24,3-6.45,4.26-9.75,1.63-4.17,3.49-8.32,4.48-12.66a119.82,119.82,0,0,0,2.62-27c0-3.93-1.07-7.86-1.6-11.79a117.26,117.26,0,0,0-6-24.1c-3.33-9.24-8.3-17.62-13.78-25.78a104.79,104.79,0,0,0-15.64-17.91C214,63.17,208.44,60.23,203,57.18c-7-3.91-14.23-7.34-22.12-9-6.41-1.37-12.87-2.53-19.3-3.81a61.55,61.55,0,0,0-24.34.18c-6,1.21-11.85,3.12-17.74,4.8-3.9,1.11-7.84,2.18-11.62,3.64a47.07,47.07,0,0,0-9.53,4.67c-7,4.77-14.11,9.45-20.56,15.05C72.17,77.54,67.49,83.17,62.9,88.92a76.52,76.52,0,0,0-11.8,19.72,101.54,101.54,0,0,0-4.53,15.83c-.86,4-.85,8.24-1.28,12.36C44.7,142.51,43.61,148.14,44,153.66Z"/><path class="cls-3" d="M194,184.22c-.73,2.23-1.27,4.37-2.14,6.37-2.66,6.17-5.24,12.39-8.24,18.4-4.61,9.25-9.89,18.11-17.11,25.66-2.79,2.91-5.9,5.3-10,5.68a26.37,26.37,0,0,1-5.78-.5c-.29,0-.59-.54-.76-.9-.39-.81-.82-1.25-1.86-1-.51.1-1.15-.41-1.72-.66s-1.29-.63-2-.87c-.43-.15-.93-.08-1.36-.24-11.35-4.2-19.69-12-26-22.1a70.46,70.46,0,0,1-6.91-14.5c-.26-.74-.67-1.42-1.17-2.47L87.61,211.11c1.08,1.34,2,2.36,2.8,3.47A26.13,26.13,0,0,1,93,218.43c.85,1.75-.65,4.07-2.63,4.26a22.16,22.16,0,0,1-3,0,3.86,3.86,0,0,1-3.13-1.62c-2-2.66-4-5.28-6.13-7.89a32.31,32.31,0,0,0-2.55-2.81A11.45,11.45,0,0,1,72,203.52c-.35-2.83,2.7-5.86,5.3-5.19a3.15,3.15,0,0,1,1.35,1.13c.33.42.43,1,.75,1.45,1.27,1.79,1.68,1.88,3.58.81a2.63,2.63,0,0,1,2.63-.1,2.32,2.32,0,0,0,1.92-.26,177.36,177.36,0,0,0,17.75-13.11,2.92,2.92,0,0,0,1.23-3.09c-2.3-15.28-2-30.64-1.28-46a3.74,3.74,0,0,0-2.55-4.2c-2.08-.92-4.14-2.23-6.32-2.53-4-.56-7.36-2.67-11-4.12a8.84,8.84,0,0,1-4.05-3.54,9.79,9.79,0,0,0-2.19-2.06c-1.38-1.13-1.76-2.12-.86-3.51a41.61,41.61,0,0,0,4.66-11.47c.33-1.14.71-2.27,1.13-3.37a3.64,3.64,0,0,0-1.22-4.63A16.75,16.75,0,0,0,80,97.85a3,3,0,0,0-3.66,1.65,1,1,0,0,0,.26.85,5.26,5.26,0,0,0,1.45.75c2.23.79,3.38,2.46,2.67,4.73a41.83,41.83,0,0,1-3,7.1c-3.22,6-6.6,12-9.89,18-.49.91-1,1.48-2.18,1.18a11.32,11.32,0,0,0-2-.18,9.15,9.15,0,0,1-8.32-7.24A4.56,4.56,0,0,1,56,122c2.35-4.3,4.88-8.51,7.16-12.85,1.59-3,2.9-6.21,4.3-9.33a1.94,1.94,0,0,1,2.28-1.33c2.44.32,3.57-.31,4.76-2.46a3.77,3.77,0,0,1,4.57-2,12.67,12.67,0,0,1,6.62,3.79,6,6,0,0,1,1.53,5.65c-1,4.28-2.19,8.52-3.29,12.77-.12.45-.24.89-.37,1.35,4,.69,6.87,3.64,10.39,5.19,1,.42,1.84,1.08,2.82,1.44a13.68,13.68,0,0,0,2.43.35,11.44,11.44,0,0,1,2,.41c1,.36,1.93.87,2.93,1.21,1.24.42,1.53.22,1.58-1.06.14-3.63.22-7.27.35-10.91.2-5.88.48-11.76.6-17.64A51.68,51.68,0,0,0,103.17,77c-1.28-3.39-2.17-7-4.33-10a1.7,1.7,0,0,1-.11-1.52c.15-.29.87-.39,1.34-.39a3.61,3.61,0,0,1,3.08,1.75c2.63,3.88,5.41,7.69,7.71,11.75,4,7.12,6.84,14.8,9.64,22.46.55,1.51.82,3.11,1.23,4.66.2.77.43,1.53.74,2.58l2.6-3c-2.42-2.78-2.31-6.08-2.11-9.33a7.44,7.44,0,0,1,3.9-5.93,2.52,2.52,0,0,0,1.35-3.21,4.7,4.7,0,0,1,.49-2.76c.43-1,1.29-1.81,1.72-2.8a9.71,9.71,0,0,0,1.12-3.8,6.75,6.75,0,0,1,3.65-6.47c1.13-.64,1.76-1.31,1.26-2.78a3.32,3.32,0,0,1,.32-2.44c1.65-2.88,3.83-5.19,7.42-5.47.74-.06,1-.31,1.09-1,.41-3.77.45-3.69,4.05-4.74a4.65,4.65,0,0,1,4.51.69,8.25,8.25,0,0,0,4.91,1.76,8.91,8.91,0,0,1,6.16,3.19,5.27,5.27,0,0,1,.26,6,1.34,1.34,0,0,0,.33,2.1c1.48,1.2,2.87,2.5,4.31,3.74a4.07,4.07,0,0,1,.93,5.68,1.52,1.52,0,0,0,.48,2.41A6.92,6.92,0,0,1,174,84.7a4.31,4.31,0,0,0,1.45,2.38c3.17,2.59,4,5.13,2.37,9-.69,1.65-1.16,3.06.36,4.47a6.14,6.14,0,0,1,.76,1.6,9.34,9.34,0,0,0,.75-1.32c1.93-5.37,3.67-10.82,5.82-16.11,2.42-6,3.17-12.35,4.83-18.5.42-1.55.78-3.11,1.16-4.67.23-.94,1.16-1.27,1.79-.45a9.07,9.07,0,0,1,1.94,3.59,31.56,31.56,0,0,1,.57,7.06c-.29,7.57-.55,15.15-1.2,22.69-.76,8.77-1.93,17.5-2.89,26.24-.18,1.67-.24,3.35-.38,5.41.63-.45.93-.64,1.19-.86,3.07-2.61,6.11-5.23,9.19-7.81a1.48,1.48,0,0,0,.57-1.87c-.85-2-1.62-4-2.64-5.88-1.91-3.56-1.94-3.89,1.45-6.06,1.6-1,3.35-1.79,5-2.67.23-.12.52-.15.69-.31,3-2.89,7.14-3.4,10.85-4.67a10,10,0,0,1,8.34.93c2.24,1.28,4.6,2.34,6.93,3.45a4.6,4.6,0,0,1,2.79,4.69c-.15,4.62-1.46,8.68-5.14,11.8-2.71,2.29-5.26,4.76-7.85,7.18-1.24,1.16-2.38,2.41-3.59,3.59-1.88,1.82-3.48,1.9-5.48.28-1.28-1-2.55-2.1-3.78-3.2a1.85,1.85,0,0,0-2.78-.09c-1.2,1-2.62,1.72-3.86,2.67-4.22,3.24-8.42,6.5-12.58,9.82a3,3,0,0,0-.8,1.77A142.43,142.43,0,0,0,188.16,160a12.85,12.85,0,0,0,.17,1.32c4.64-6.67,7.23-14.29,12.84-20.13l1.51,1.2c-.4,1.72-.78,3.2-1.07,4.71-.64,3.32-1.23,6.66-1.82,10-.12.66-.12,1.34-.2,2-.29,2.47-.56,4.94-.91,7.41s-.78,4.76-1.19,7.13a2.33,2.33,0,0,0,1.35,2.72q5.29,2.73,10.57,5.48a19.14,19.14,0,0,1,2.78,1.53c5,3.83,10.7,6.11,16.45,8.37,1.62.63,3.23,1.28,4.81,2a4.8,4.8,0,0,1,2.13,6.3,4.5,4.5,0,0,1-5.68,2.74,1.77,1.77,0,0,1-.57-.27c-3.72-3.23-8.48-4.5-12.73-6.72-7.13-3.7-14.3-7.35-21.44-11ZM113.63,93.05a7.22,7.22,0,0,0,.09.83c1.08,4.17,2.3,8.32,3.25,12.52,2,9,3.93,18,4.54,27.26.44,6.59.91,13.18,1.72,19.73.61,5,2,10,2.62,15,.73,6.13,2.78,11.86,4.91,17.55a114.79,114.79,0,0,0,6.29,13.56c4.36,8.17,9,16.19,15.61,22.85a22,22,0,0,0,6.54,5.1c1.28.57,1.69,0,2.25-.87a1.44,1.44,0,0,0-.54-2.24,16.45,16.45,0,0,1-2.55-1.88c-4.38-4.36-9-8.43-12.2-13.94a85.43,85.43,0,0,1-8.2-18.79c-2.91-9.93-5.07-20.08-7.41-30.17-1.33-5.76-2.37-11.59-3.58-17.38-.88-4.22-1.77-8.44-2.75-12.64-1.94-8.37-3.8-16.75-6-25-1-3.73-2.71-7.27-4.11-10.9C114.06,93.45,113.91,93.36,113.63,93.05Zm-2.72,1.09-.26.15a44.71,44.71,0,0,1,1.3,5.76c.93,9.38,1.76,18.78,2.58,28.17.63,7.16,1.07,14.34,1.82,21.49.71,6.73,1.62,13.43,2.63,20.12a123.28,123.28,0,0,0,2.55,12.94c1.1,4.24,2.75,8.35,4,12.55a55.59,55.59,0,0,0,10.68,19.43c5.32,6.41,12.31,10.92,18.74,16,.07.06.15.14.22.14l1.15-.05.16-.44c-1.17-1.2-2.28-2.45-3.51-3.58a56,56,0,0,1-8.06-8.92,145.38,145.38,0,0,1-8.26-13.22c-4.08-7.28-7.89-14.68-10.46-22.64a116.6,116.6,0,0,1-4.79-23.33c-.77-7.06-1.65-14.11-2.46-21.17-.73-6.29-.76-12.66-2.13-18.88q-2.52-11.46-5.08-22.92A7.28,7.28,0,0,0,110.91,94.14Zm-.89,10-.45.08c0,.52,0,1,0,1.56q.09,5.76.19,11.52c0,1.4,0,2.79.13,4.18.21,2.22.77,4.43.76,6.65,0,6.55-.51,13.12-.31,19.66.21,7.14.79,14.28,1.57,21.38a97.62,97.62,0,0,0,4.35,21c1.29,3.76,2.26,7.72,4.18,11.14,2.87,5.13,5.75,10.25,9.64,14.84a69,69,0,0,0,19.83,16.54,7.7,7.7,0,0,0,1.43.46l.21-.39c-.56-.53-1.08-1.11-1.69-1.59a136.82,136.82,0,0,1-13.64-11.94,56,56,0,0,1-12-18.47c-4.4-10.82-6.66-22.17-8.59-33.59-.74-4.42-1-8.91-1.43-13.38-.85-9.74-1.68-19.48-2.43-29.22-.48-6.2-.79-12.41-1.22-18.62A8.35,8.35,0,0,0,110,104.1Zm82-10-.44-.1c-.19.53-.42,1.06-.56,1.61a131.81,131.81,0,0,0-2.92,15.57c-.71,5.52-2.14,11-3,16.47-.54,3.45-.45,7-1,10.47-1.26,8.39-2.86,16.72-3.73,25.19-.89,8.68-2.78,17.27-4.45,25.86-.55,2.84-1.78,5.55-2.64,8.33-1.33,4.23-2.6,8.48-3.9,12.72-.13.45-.25.91-.37,1.37l.47.24a31.05,31.05,0,0,0,3.19-4.89c2-4.74,4.79-9.11,5.92-14.24s2.94-10,4-15.08c2.42-11.87,3.25-24,4.37-36,1.23-13.1,2.2-26.22,4.24-39.23C191.61,99.63,191.74,96.84,192,94.08ZM160.2,219.51l.47,0c.12-.51.27-1,.35-1.55,1.22-7.51,2.47-15,3.64-22.54,1.7-10.86,3.22-21.75,5.05-32.59.86-5.08,2.3-10.05,3.44-15.08.73-3.17,1.07-6.48,2.17-9.51,3.05-8.39,4.62-17.14,6.69-25.76a5.21,5.21,0,0,0,0-1.25,1.86,1.86,0,0,0-.8.9c-2.75,6.45-5.81,12.8-8.17,19.39-3.62,10.09-5.77,20.6-7.95,31.07-.89,4.25-1.21,8.62-1.8,12.93-.25,1.84-.65,3.67-.77,5.52q-1.22,18.55-2.34,37.11C160.17,218.63,160.2,219.07,160.2,219.51Zm51.43-98.32c1.2,1.09,2.17,1.9,3.06,2.79a1.78,1.78,0,0,0,2.78.1c2.82-2.56,5.79-5,8.4-7.72a44.31,44.31,0,0,0,5.58-7.33c1.44-2.38.6-4.48-1.79-5.88a6.69,6.69,0,0,1-.92-.66c-3.74-3.32-8-4.28-12.67-2.47-3.55,1.35-7.1,2.74-10.61,4.2a14.38,14.38,0,0,0-2.8,1.71,1.13,1.13,0,0,0-.34,1c1.21,2.3,2.5,4.55,3.81,6.91a24.41,24.41,0,0,0,3.17-2.24c2-2,4.3-1.91,6.74-1.51a1.94,1.94,0,0,1,1.93,2.23,6.79,6.79,0,0,1-2.75,5.58C214,118.92,212.92,120,211.63,121.19Zm-41.22,11.1-.38-.11a5.57,5.57,0,0,0-.4.59,213.52,213.52,0,0,0-10.7,24.66,92.24,92.24,0,0,0-3.7,17.21,185.36,185.36,0,0,0-1.57,28.73,26.93,26.93,0,0,0,.81,4.59A20.12,20.12,0,0,0,155,210c.61,1.93,1.26,3.85,1.9,5.77a10.67,10.67,0,0,0,.53-2.75c.34-3.49.76-7,1-10.47.34-5.07.31-10.16.84-15.2.71-6.68,1.83-13.32,2.73-20,.35-2.51.32-5.1,1-7.53,2.28-8.76,4.76-17.46,7.17-26.19C170.19,133.22,170.3,132.75,170.41,132.29Zm-5.15,79.6.53.21a15.93,15.93,0,0,0,1-2.15c1.45-5.08,2.89-10.16,4.27-15.26,1.49-5.46,3.07-10.91,4.32-16.43.84-3.65,1.2-7.41,1.72-11.14.31-2.26.55-4.53.79-6.8s.3-4.31.61-6.44c1-6.69,2-13.37,3-20.07.35-2.48.47-5,.69-7.49l-.36-.08c-.34,1-.76,1.92-1,2.92q-2.69,10.64-5.29,21.29c-1.15,4.77-2.46,9.51-3.29,14.34-1.29,7.45-2.21,15-3.35,22.46-1.17,7.69-2.41,15.37-3.61,23.06A10.4,10.4,0,0,0,165.26,211.89ZM64.39,129.61a5.09,5.09,0,0,0,1.12-1.12c3-5.39,6-10.8,8.88-16.24.91-1.71,1.63-3.52,2.41-5.31a2,2,0,0,0-.29-2.46,14.44,14.44,0,0,0-3.19-2c-1.5-.65-3.44-.1-3.95.91q-4.86,9.61-9.72,19.24C58.18,125.55,60.61,129.5,64.39,129.61Zm131.1,38.22-.32-.08a10,10,0,0,0-.5,1.11c-.77,2.5-1.36,5.07-2.32,7.49-1.88,4.75-3.82,9.49-6,14.1q-5.27,11.12-11,22a98.32,98.32,0,0,1-5.61,8.75c-.53.79-1.16,1.72-2.34.78-.17.31-.31.52-.41.75-1,2.3-2,4.61-3.12,6.89a7.94,7.94,0,0,1-3.52,3.7c-1.75.94-3.51,1.88-5.25,2.83-.25.14-.46.34-.94.69,3.28,0,6-.65,8.11-2.81,4.39-4.48,8.73-9.07,11.84-14.52,4.06-7.12,7.78-14.44,11.4-21.79,4-8.07,6.62-16.65,9-25.32C194.91,170.92,195.17,169.37,195.49,167.83Zm-87.44-12.68-.35,0c0,.48-.08,1-.06,1.43.26,5.7.35,11.42.85,17.11,1.18,13.45,4.23,26.37,11.41,38.06,5.09,8.28,11.58,15.06,20.26,19.59a17.72,17.72,0,0,0,1.87.74l.15-.35c-1.05-.74-2.14-1.43-3.15-2.23a74.59,74.59,0,0,1-20.82-26.05A84.62,84.62,0,0,1,110.78,180c-.83-5-1.32-10-1.87-15.09-.29-2.64-.39-5.3-.59-8C108.27,156.32,108.14,155.73,108.05,155.15Zm24.42-50.75c3.13,0,4.11-.22,5.73-1.17.89-.51,1.09-1,.43-1.88a7,7,0,0,1-1.42-5.6c.28-1.76.21-1.81-1.57-2a9,9,0,0,1-5.17-1.81,1.59,1.59,0,0,0-1.48-.12c-1.57,1-3.71,3-3.26,5.58.13.74.14,1.51.23,2.26.39,3.26,1.86,4.62,5.11,4.74C131.54,104.41,132,104.4,132.47,104.4Zm29.3,9.95a11.78,11.78,0,0,0,6.89-2.25,3.78,3.78,0,0,0-1.38-7,11.3,11.3,0,0,1-1.62-.67c-2.57-1-5.09-1.32-6.72.48a7.19,7.19,0,0,0-1.81,5.62A4.44,4.44,0,0,0,161.77,114.35Zm1.33,12.79a6,6,0,0,0,5.17-2.45c.71-1.1,1.36-2.24,2-3.41.84-1.66-1-4.64-2.84-4.73a1.78,1.78,0,0,0-.51.06,60.19,60.19,0,0,1-6.33,1.18c-3.66.3-4.51,4.28-3,6.58C158.87,126.37,160.84,127,163.1,127.14Zm-31.36-10.63c3.73.07,5.76-1.34,7.24-3.65a1.31,1.31,0,0,0-.06-1c-.54-1.15-1.09-2.29-1.73-3.38a1.54,1.54,0,0,0-1.06-.65c-2.65-.13-5.31-.27-8-.22a3.33,3.33,0,0,0-2.15,1,3.93,3.93,0,0,0,.9,6A30.14,30.14,0,0,0,131.74,116.51Zm16.48-24.82v-.11c-.89,0-1.77-.13-2.66-.13-.3,0-.85.14-.87.26-.11,1.08-1,1.15-1.72,1.4-2.14.76-2.93,2.4-3.06,4.5a1.82,1.82,0,0,0,1.49,2c4.56,1.22,8.69.57,12.2-2.81,1.32-1.28,1.5-2.53.14-3.77a6.83,6.83,0,0,0-2.88-1.34A10.56,10.56,0,0,0,148.22,91.69Zm34,100.46.36.07c1.58-3.67,3.36-7.28,4.72-11,3.54-9.76,6.89-19.59,10.31-29.4,0-.06-.05-.15-.16-.41a10.72,10.72,0,0,0-.78,1c-2.05,3.6-4.12,7.2-6.1,10.83a18.28,18.28,0,0,0-1,2.86c-.24.67-.42,1.37-.72,2a34.57,34.57,0,0,0-3.08,8c-1,5-2.31,9.87-3.47,14.81A7.37,7.37,0,0,0,182.26,192.15Zm-14.5-62.27a7.43,7.43,0,0,0-1.32.13,10.27,10.27,0,0,1-8.13-.34,1.76,1.76,0,0,0-1.65.56,15.85,15.85,0,0,0-1.63,5c-.24,3.52,3,5.42,6.16,3.81a4.24,4.24,0,0,1,1.51-.55,2,2,0,0,0,1.83-1.49c.45-1.13.92-2.26,1.43-3.37S167.08,131.27,167.76,129.88Zm-22.08-7.71c.39-.09.77-.16,1.13-.26l4.75-1.34c1.17-.34,2.37-.74,2.47-2.18s-1.14-1.94-2.11-2.59a1.91,1.91,0,0,0-.47-.18c-2-.54-4.09-1-6.1-1.63-2.51-.79-5.6,1.74-5.66,5a2.22,2.22,0,0,0,1.79,2.32C142.86,121.64,144.28,121.88,145.68,122.17Zm-12,5.85c2.87,0,4.28-1.13,4.81-3.93a1.58,1.58,0,0,0-.28-.9c-.55-1-1.19-2-1.66-3.1-.29-.66-.61-.79-1.32-.77a35.75,35.75,0,0,1-5.38-.17c-1.59-.2-2.41.18-2.75,1.77-.21.94-.4,1.89-.65,2.82a2.11,2.11,0,0,0,1,2.61A11,11,0,0,0,133.71,128Zm62.6,50.71a2.84,2.84,0,0,0-.3.44c-.54,1.65-.08,2.52,2,3.65a336.56,336.56,0,0,0,32.64,15.46,9.71,9.71,0,0,0,1,.29,2.77,2.77,0,0,0-1.75-2,99.79,99.79,0,0,1-9.22-4.42c-7.27-4.32-14.73-8.3-22.12-12.4C197.84,179.35,197.05,179.06,196.31,178.73ZM152.44,88.05a4.57,4.57,0,0,0,3.71-1.84,3.11,3.11,0,0,0-1-4.4,8.12,8.12,0,0,0-5.91-.6,17.58,17.58,0,0,1-3,.57,3.7,3.7,0,0,0-3.2,4.65c.73,2.07,4.93,3.27,6.6,1.84a1.61,1.61,0,0,1,1.83-.39A4.21,4.21,0,0,0,152.44,88.05Zm-24.52,42.3a43.28,43.28,0,0,0,2.14,10.25,1.24,1.24,0,0,0,.9.66c2.67.11,5.16-.43,6.23-3.43.32-.92.7-1.81,1-2.74.65-2.05-.37-3.48-2.54-3.68-1.55-.15-3.1-.36-4.65-.56C130,130.72,129.09,130.54,127.92,130.35Zm13.82,22.7a8.72,8.72,0,0,0,5.56-2.28,2,2,0,0,0,.94-2.28c-.34-1.09-.8-2-2.13-2.23a26.51,26.51,0,0,1-3.84-.82,6,6,0,0,0-7.43,2.85,1.26,1.26,0,0,0-.2.58c0,1.11,1.64,3.3,2.76,3.52C138.94,152.68,140.49,152.86,141.74,153.05Zm5,5.41c0-2.29-.55-2.61-2.87-2.43a20.85,20.85,0,0,1-5.75-.2c-1.43-.29-2.12-.24-3.12,1-1.38,1.71-1.51,3.69,1,5.12a18.54,18.54,0,0,0,4.38,1.61A5,5,0,0,0,146.79,158.46Zm.66-47.46a6.5,6.5,0,0,0,5.86-3.34,2.45,2.45,0,0,0-1.68-3.61,10.47,10.47,0,0,1-2.23-.28c-3.17-.9-6-.57-8.23,2.15-.92,1.1-1.17,1.68-.28,2.8a4.28,4.28,0,0,0,2,1.49A41.19,41.19,0,0,0,147.45,111Zm-9.3,66.83c.84,2.94,1.51,5.59,2.36,8.18s1,2.65,3.87,2.67a1.47,1.47,0,0,0,1.61-1.06c.24-.63.62-1.2.89-1.81a7,7,0,0,0-.56-7.1,3,3,0,0,0-1.9-.87,25.67,25.67,0,0,0-3.62-.13C140.06,177.7,139.32,177.77,138.15,177.83Zm52.52-44.94a40.74,40.74,0,0,0,7.08-4.86c3.91-3.21,7.93-6.28,11.85-9.49a30.09,30.09,0,0,0,3.33-3.44c.24-.28.14-.84.2-1.27a8.82,8.82,0,0,0-1.43-.16,1.68,1.68,0,0,0-.77.42c-1.41,1-2.87,2-4.2,3.06-5.12,4.27-10.2,8.59-15.3,12.9C190.57,130.78,190,131.58,190.67,132.89Zm-24.86-43v0h.38a4.53,4.53,0,0,0,4.46-3.6c.23-1.25-1.51-4.2-2.82-4.78-2.67-1.17-6.35.66-7.26,3.61A3.67,3.67,0,0,0,164.3,90C164.81,90,165.31,90,165.81,89.9ZM135.38,166c.71,2.71,1.31,5.19,2.05,7.62a1.84,1.84,0,0,0,1.36.86c1.55.18,3.11.17,4.67.27a1.85,1.85,0,0,0,2.08-1.44,6.6,6.6,0,0,0-.56-5.49,1.51,1.51,0,0,0-1.09-.51c-1.38-.11-2.78,0-4.14-.2A41.31,41.31,0,0,1,135.38,166ZM144,125.49a3.11,3.11,0,0,0-3.4,1.62,2.05,2.05,0,0,0-.08,1.54c.74,1.79,4.75,3.5,6.58,2.81s3.61-1.44,5.38-2.23a1.75,1.75,0,0,0,.71-2.83,4.39,4.39,0,0,0-4.36-1.68C147.25,125,145.63,125.24,144,125.49Zm-36.91,65.44c-.4.26-.76.46-1.1.7q-9.17,6.7-18.3,13.43c-1.1.81-2.16,1.51-3.6,1-.11,0-.28.09-.43.14,1.2,2.53,1.92,2.76,4.11,1.34l1-.72c3.59-2.46,7.2-4.89,10.77-7.38,2.56-1.78,5.12-3.56,7.56-5.51C108.58,192.82,108.47,192.46,107.11,190.93Zm44.29-53.4c0-1.74-.85-2.94-2.48-2.91-2.74,0-5.4.47-7.11,3.07-1.21,1.84-.89,3.26,1.08,4.26a11.48,11.48,0,0,0,1.39.61A5.45,5.45,0,0,0,151.4,137.53Zm11.41-44.31h-.76a4.52,4.52,0,0,0-4,3.37c-.18,1.17,1.21,2.79,2.85,3.33.16,0,.33.07.49.13,2.46.88,4.53-.37,6.66-1.24,1.72-.71,1.93-1.78.79-3.26C167.28,93.55,165.12,93.21,162.81,93.22ZM151.88,70.85c-1,.2-1.83.3-2.58.52a5,5,0,0,0-2.2.95,12.4,12.4,0,0,0-1.86,3.12c-.41.92.13,1.48,1.15,1.56a10.23,10.23,0,0,1,2.84.46c2.75,1.08,4.85.14,6.69-1.87a2.28,2.28,0,0,0-.63-3.71A26.33,26.33,0,0,0,151.88,70.85ZM136.73,90.64c3,0,3.75-.87,3.41-3.31-.07-.46-.15-.92-.22-1.38-.34-2.09-.34-2.07-2.44-2.56-.78-.18-1.52-.54-2.3-.68-.63-.12-1.53-.3-1.91,0a4.49,4.49,0,0,0-2,4A3.39,3.39,0,0,0,133.89,90C135,90.28,136.1,90.49,136.73,90.64ZM152.29,148c.18,1.86.7,2.74,2,3.13,1.49.44,3.52,0,4.12-1.18.94-1.79,1.74-3.66,2.59-5.5.27-.58.1-1-.59-1.08-1-.18-2.06-.43-3.1-.64-2.18-.44-3.13,0-4.09,2A21.74,21.74,0,0,0,152.29,148ZM139.71,72.51A6.45,6.45,0,0,0,135,75.24c-1,1.61-.53,3.29,1.23,4a38.59,38.59,0,0,0,5.6,1.62c.42.09,1.07-.48,1.48-.89.15-.16,0-.77-.14-1.06a5.11,5.11,0,0,1-.73-4.13,1.2,1.2,0,0,0-.91-1.72C140.92,72.83,140.31,72.68,139.71,72.51ZM88.17,219.33l.31-.21a7.34,7.34,0,0,0-.66-1.35q-5.38-7.22-10.83-14.4a6.38,6.38,0,0,0-1.44-1,13.15,13.15,0,0,0-.37,2.11c0,.33.31.69.54,1q4,5.27,8,10.51A13.27,13.27,0,0,0,88.17,219.33Zm58.89-17.05.53-.06a9.06,9.06,0,0,0,1-1.84,14.56,14.56,0,0,0-.13-7.61,2,2,0,0,0-1.5-1.2,13.44,13.44,0,0,0-3.34,1.08c-.19.08-.34.69-.23.95C144.6,196.51,145.84,199.39,147.06,202.28Zm6-48.06a5.26,5.26,0,0,0-1.61.72c-1.54,1.47-1.59,5-.18,6.58,1.2,1.31,2.67,1,3.29-.59.37-1,.71-1.9,1.06-2.86C156.7,155.05,156.4,154.61,153.06,154.22ZM150.43,68c2.48-.06,4-1,4.91-2.68a1.2,1.2,0,0,0-.2-1.11c-1.79-1.63-6.07-1.44-7.82.29-1.11,1.1-1,2.1.45,2.67C148.78,67.58,149.84,67.83,150.43,68Zm12.34,2.45c-1.58.09-1.93,1.33-2.44,2.36a2.56,2.56,0,0,0,1.09,3.59,5.42,5.42,0,0,0,5.33.19c1.38-.71,1.44-1.62.13-2.46a2.16,2.16,0,0,0-1.06-.4c-1.93,0-2.87-.95-2.84-2.88C163,70.75,162.87,70.64,162.77,70.46Zm-6.45-9.55c.78,1.36,2,2.6,2.14,4s-.76,2.9-1.25,4.51c.65.7,1.32.79,1.42,0,.18-1.5,1.17-2.25,2.27-3a3,3,0,0,0,.38-4.95A4.09,4.09,0,0,0,156.32,60.91Zm-3.41,106.21a1.16,1.16,0,0,0-1.81-1.07,4.31,4.31,0,0,0-2.23,3.74,4.69,4.69,0,0,0,1.69,4.28c1,.75,1.71.36,1.83-.91C152.56,171.36,152.7,169.55,152.91,167.12ZM86.18,121.81c-1.31,1.58-1.34,2.86,0,3.49,2.3,1,4.69,1.89,7.08,2.72.35.12.88-.28,1.32-.44-.21-.41-.31-1-.65-1.21C91.43,124.82,88.82,123.35,86.18,121.81ZM173,101.17a18.46,18.46,0,0,0-2.69.48c-.7.24-.77.72-.15,1.34a41.93,41.93,0,0,1,3.28,3.64c.64.8,1.2.76,1.74.07a4.15,4.15,0,0,0,.37-4.21C175.08,101.17,174.13,101.14,173,101.17Zm.63-4.6c2.69-2.84,2.33-5.13-1.06-6.91-.62.69-1.29,1.38-1.87,2.13a.93.93,0,0,0,0,.87C171.61,94,172.62,95.26,173.62,96.57ZM104,132l1.34-.57c-.32-.55-.5-1.31-1-1.61a41,41,0,0,0-4.45-2.35c-.34-.16-1.22,0-1.24.12-.12.54-.22,1.35.08,1.66A7.8,7.8,0,0,0,104,132ZM143.7,63.94c-1.86.13-2.56,1.34-3.31,2.52a1.38,1.38,0,0,0,.56,2.21c1,.56,2,1.11,3,1.6a3,3,0,0,0,1.08,0c-.1-.37-.08-.87-.31-1.1a3.57,3.57,0,0,1-1-2.88C143.71,65.58,143.7,64.83,143.7,63.94Zm31.83,47.26-.56-.29c-1.16,1-2.34,1.93-3.45,3a1.09,1.09,0,0,0,0,1,16.19,16.19,0,0,0,1.89,1.7C174.18,114.61,174.85,112.9,175.53,111.2ZM148.25,58.46c.81.56,1.38,1.27,2,1.32a7.45,7.45,0,0,0,3-.56c.37-.15.77-1-.13-1.23A6.63,6.63,0,0,0,148.25,58.46Zm2.42,125c-.48,1.56-.79,2.9-1.31,4.16s-.05,1.88,1.31,2.38Zm8.5-101.83c.33-.86,1.37-1.43.23-2.36-1.51-1.22-1.47-1.26-2.92.17Zm-5.48,19.1,2.65,2.25c.78-1.18.46-2-1.18-3.39Zm1.43-10,2,1.59A5.49,5.49,0,0,0,158,91a4,4,0,0,0-.12-1.41,4.61,4.61,0,0,0-1.13.21A14.58,14.58,0,0,0,155.12,90.72ZM130.79,144l1,3.49,1.5-2.43Zm19.77,37.15.66,0c.07-.82.18-1.64.17-2.45,0-.15-.56-.44-.81-.39s-.67.47-.63.66A17.24,17.24,0,0,0,150.56,181.18Zm-.48,23.92c-.5.53-1,1-1,1.06a25,25,0,0,0,1.46,2.12l.31-.19C150.65,207.22,150.42,206.36,150.08,205.1Z"/><path class="cls-3" d="M223,105.68a5.37,5.37,0,0,1-.66,1.19c-.91.93-1.85,1.83-2.84,2.69a1.54,1.54,0,0,1-2.27-.1c-.7-.75-.37-1.49.35-2.06,1.16-.9,2.33-1.81,3.54-2.64a1.29,1.29,0,0,1,1.13-.16C222.56,104.79,222.72,105.3,223,105.68Z"/></g></svg>